<?xml version="1.0" encoding="UTF-8" standalone="no"?>
<svg width="441px" height="114px" viewBox="0 0 441 114" version="1.1" xmlns="http://www.w3.org/2000/svg" xmlns:xlink="http://www.w3.org/1999/xlink">
    <defs></defs>
    <g id="Page-1" stroke="none" stroke-width="1" fill="none" fill-rule="evenodd">
        <g id="logo-final" fill="#514A59">
            <g id="Group" transform="translate(132.000000, 34.000000)">
                <path d="M0.3,40.6 L5.7,40.6 L5.7,7.8 L0.3,7.8 L0.3,0.5 L35.2,0.5 L35.2,14 L27.4,14 L27.4,7.7 L13.8,7.7 L13.8,21.2 L27.8,21.2 L27.8,28.2 L13.8,28.2 L13.8,40.6 L20.1,40.6 L20.1,47.9 L0.3,47.9 L0.3,40.6 L0.3,40.6 Z" id="Shape"></path>
                <path d="M34.8,32.1 C34.8,23.5 41.3,15.8 51.6,15.8 C62,15.8 68.4,23.4 68.4,32.1 C68.4,40.7 61.9,48.4 51.6,48.4 C41.1,48.4 34.8,40.9 34.8,32.1 L34.8,32.1 Z M60.3,32.1 C60.3,26.3 56.7,22.3 51.6,22.3 C46.5,22.3 42.9,26.3 42.9,32.1 C42.9,37.9 46.5,41.9 51.6,41.9 C56.7,41.9 60.3,37.8 60.3,32.1 L60.3,32.1 Z" id="Shape"></path>
                <path d="M101.1,20.9 C101.1,23.6 99,25.8 96.4,25.8 C94,25.8 92.4,24.4 91.8,23 C89.6,23.8 87,26.2 85.5,29 L85.5,41.4 L91,41.4 L91,47.9 L73,47.9 L73,41.4 L77.7,41.4 L77.7,23 L73,23 L73,16.4 L85.2,16.4 L85.2,23.5 C87.9,19.3 91.2,15.8 95.2,15.8 C99.1,15.7 101.1,18.1 101.1,20.9 L101.1,20.9 Z" id="Shape"></path>
                <path d="M104.3,41.4 L109,41.4 L109,23 L104.3,23 L104.3,16.4 L116.5,16.4 L116.5,21.4 C118.9,18.7 122.4,15.9 127.1,15.9 C130.5,15.9 133,17.2 134.6,19.3 C135,19.9 135.3,20.5 135.6,21.1 C138.6,18.2 142.1,15.9 146.1,15.9 C150.5,15.9 153.5,17.5 155.1,20.4 C156,22 156.4,24 156.4,26.3 L156.4,41.5 L161.1,41.5 L161.1,48 L144.3,48 L144.3,41.5 L148.5,41.5 L148.5,28 C148.5,26.8 148.4,25.8 148,25 C147.4,23.5 146.1,22.8 144.3,22.8 C141.7,22.8 139,24.3 136.6,26.3 L136.6,41.3 L140.8,41.3 L140.8,47.8 L124.4,47.8 L124.4,41.3 L128.7,41.3 L128.7,28 C128.7,26.8 128.6,25.8 128.2,25 C127.6,23.5 126.3,22.8 124.5,22.8 C121.9,22.8 119.2,24.3 116.8,26.3 L116.8,41.3 L121,41.3 L121,47.8 L104.3,47.8 L104.3,41.4 L104.3,41.4 Z" id="Shape"></path>
                <path d="M166,44.2 L172.3,44.2 L172.3,4 L166,4 L166,0.4 L182.8,0.4 L182.8,4 L176.5,4 L176.5,26.7 L199.1,4 L192.3,4 L192.3,0.4 L209.4,0.4 L209.4,4 L204,4 L187.7,20.4 L204.1,44.2 L209.9,44.2 L209.9,47.8 L201.3,47.8 L184.7,23.1 L176.4,31.4 L176.4,44.2 L182.7,44.2 L182.7,47.8 L166,47.8 L166,44.2 L166,44.2 Z" id="Shape"></path>
                <path d="M214.3,33.6 C214.9,41.2 219.5,45 226.8,45 C231,45 233.6,43.7 237.2,41.6 L236.8,45.3 C233.7,47.3 229.8,48.3 226.2,48.3 C216.6,48.3 210.4,41.8 210.4,32.7 C210.4,24.4 215.9,16.9 225,16.9 C233.7,16.9 238.5,23.7 238.5,31.1 C238.5,32.2 238.4,32.8 238.3,33.5 L214.3,33.5 L214.3,33.6 Z M214.4,30.3 L234.8,30.3 C234.4,24.4 231.1,20.3 224.7,20.3 C219.4,20.3 215.1,24.2 214.4,30.3 L214.4,30.3 Z" id="Shape"></path>
                <path d="M246.7,33.6 C247.3,41.2 251.9,45 259.2,45 C263.4,45 266,43.7 269.6,41.6 L269.2,45.3 C266.1,47.3 262.2,48.3 258.6,48.3 C249,48.3 242.8,41.8 242.8,32.7 C242.8,24.4 248.3,16.9 257.4,16.9 C266.1,16.9 270.9,23.7 270.9,31.1 C270.9,32.2 270.8,32.8 270.7,33.5 L246.7,33.5 L246.7,33.6 Z M246.8,30.3 L267.2,30.3 C266.8,24.4 263.5,20.3 257.1,20.3 C251.8,20.3 247.5,24.2 246.8,30.3 L246.8,30.3 Z" id="Shape"></path>
                <path d="M274.4,58.6 L279.4,58.6 L279.4,20.9 L274.4,20.9 L274.4,17.6 L283,17.6 L283,22.3 C285.7,19.1 289,17 293.7,17 C301.7,17 308.2,23.1 308.2,32.5 C308.2,41 302.4,48.4 292.9,48.4 C289.2,48.4 285.6,47 283,44.7 L283,58.7 L289.3,58.7 L289.3,62 L274.3,62 L274.3,58.6 L274.4,58.6 Z M304.4,32.6 C304.5,25.4 299.9,20.4 293.5,20.4 C289.1,20.4 285.8,22.6 283.1,25.5 L283.1,41.4 C285.5,43.6 288.6,45.1 293.1,45.1 C299.9,45.1 304.3,39.6 304.4,32.6 L304.4,32.6 Z" id="Shape"></path>
            </g>
            <g id="Group">
                <path d="M94.1,22.5 L60.1,2.9 C54.8,-0.1 48.3,-0.1 43,2.9 L9,22.5 C2.8,25.9 0.5,31.2 0.5,37.3 L0.5,76.6 C0.5,82.7 3.7,88.3 9,91.4 L43,111 C48.3,114 54.8,114 60.1,111 L94,91.4 C99.3,88.4 102.5,82.7 102.5,76.6 L102.5,37.3 C102.6,31.2 99.4,25.6 94.1,22.5 L94.1,22.5 Z M71.3,85.6 C71.3,86.6 70.6,87.3 69.7,87.3 L33.6,87.3 C32.6,87.3 31.9,86.6 31.9,85.6 L31.9,78.2 C31.9,77.3 32.2,76.5 32.9,75.8 L37.2,71.6 L39.8,47.4 C39.9,46.7 39.6,46.1 39.1,45.7 L35.6,42.6 C34.9,42 34.6,41.1 34.6,40.2 L34.6,28.4 C34.6,27.4 35.3,26.6 36.3,26.6 L41.6,26.6 C42.5,26.6 43.4,27.4 43.4,28.3 L43.4,31 L47.8,31 L47.8,28.4 C47.8,27.4 48.6,26.6 49.6,26.6 L53.9,26.6 C54.8,26.6 55.5,27.4 55.5,28.3 L55.5,31 L59.9,31 L59.9,28.5 C59.9,27.5 60.9,26.6 61.9,26.6 L67.1,26.6 C68,26.6 69,27.4 69,28.3 L69,40.5 C69,41.3 68.6,42 68.1,42.6 L64.4,45.8 C63.9,46.2 63.7,46.8 63.7,47.4 L66.3,71.6 L70.6,76 C71.1,76.5 71.3,77.1 71.3,77.8 L71.3,85.6 L71.3,85.6 Z" id="Shape"></path>
                <path d="M51.7,60.2 C48.9,60.1 46.7,62.6 46.7,65.3 L46.7,75.7 C46.7,76.3 47.2,76.8 47.8,76.8 L55.3,76.8 C55.9,76.8 56.5,76.2 56.5,75.6 L56.5,65.3 C56.5,62.6 54.5,60.3 51.7,60.2 L51.7,60.2 Z" id="Shape"></path>
            </g>
        </g>
    </g>
</svg>