<?xml version="1.0" encoding="UTF-8" standalone="no"?>
<svg width="780px" height="131px" viewBox="0 0 780 131" version="1.1" xmlns="http://www.w3.org/2000/svg" xmlns:xlink="http://www.w3.org/1999/xlink" xmlns:sketch="http://www.bohemiancoding.com/sketch/ns">
    <!-- Generator: Sketch 3.1.1 (8761) - http://www.bohemiancoding.com/sketch -->
    <title>Banner Terminal</title>
    <desc>Created with Sketch.</desc>
    <defs></defs>
    <g id="Middleman-v4---Landingv2" stroke="none" stroke-width="1" fill="none" fill-rule="evenodd" sketch:type="MSPage">
        <g id="Draft-v2" sketch:type="MSArtboardGroup" transform="translate(-209.000000, -499.000000)">
            <g id="Section---Hero" sketch:type="MSLayerGroup" transform="translate(-1.000000, 0.000000)">
                <g id="Banner-Terminal" transform="translate(210.000000, 500.000000)" sketch:type="MSShapeGroup">
                    <path d="M4.90463929,-0.115942029 C2.1958818,-0.115942029 0,2.07074496 0,4.7814198 L0,34.8405797 L780,34.8405797 L780,4.7814198 C780,2.07668155 777.79691,-0.115942029 775.095361,-0.115942029 L4.90463929,-0.115942029 Z" id="background" fill="#E3E0E0"></path>
                    <g id="colorful-objects" transform="translate(13.000000, 10.000000)">
                        <ellipse id="object-2" fill="#D16868" cx="6.60457552" cy="6.93335974" rx="6.96456739" ry="6.8450857"></ellipse>
                        <path d="M27.9625822,13.7784454 C31.8090066,13.7784454 34.9271496,10.7137962 34.9271496,6.93335974 C34.9271496,3.1529233 31.8090066,0.0882740448 27.9625822,0.0882740448 C24.1161578,0.0882740448 20.9980148,3.1529233 20.9980148,6.93335974 C20.9980148,10.7137962 24.1161578,13.7784454 27.9625822,13.7784454 Z" id="object-2" fill="#D4C637"></path>
                        <ellipse id="object-2" fill="#5AB541" cx="49.3205889" cy="6.93335974" rx="6.96456739" ry="6.8450857"></ellipse>
                    </g>
                    <rect id="Rectangle-11" fill="#494E56" x="0" y="34.8405797" width="780" height="95.1594203"></rect>
                </g>
            </g>
        </g>
    </g>
</svg>