<svg width="400" height="200" viewBox="0 0 400 200" xmlns="http://www.w3.org/2000/svg"><title>MailChimp</title><g fill="#4A4A4A" fill-rule="evenodd"><path d="M352.19 118.756l-.054-.099-.107-.34.05-.103c3.371-6.942 7.232-10.924 10.593-10.924h.034c3.793.03 6.42 3.443 6.38 8.3-.023 3.243-1.454 5.11-2.647 6.105-1.36 1.135-3.176 1.785-4.976 1.785-4.442-.034-7.49-2.587-9.272-4.724zm-.919 26.214c-.542.721-1.297 1.087-2.243 1.087-1.086-.008-1.902-.389-2.457-1.129-1.552-2.078-1.115-6.96 1.42-15.826.302-1.058.633-2.122.98-3.165l.294-.884.26.895c2.955 10.232 3.544 16.632 1.746 19.022zM242.626 97.833c.1-2.21.285-4.361.55-6.395 1.71-13.111 5.285-22.268 8.692-22.268h.015c1.623.012 2.437 1.24 2.419 3.65-.045 5.92-3.796 14.395-11.147 25.19l-.575.845.046-1.022zm119.22 29.907h.12c7.154 0 12.19-4.955 12.245-12.05.026-3.513-.988-6.727-2.858-9.051-1.978-2.459-4.745-3.771-8.004-3.796h-.068c-4.397 0-8.482 3.338-12.487 10.206l-.32.547-.203-.6a322.069 322.069 0 0 0-2.452-6.86c-.375-1.024-.544-1.484-.583-1.632-.19-.744-.826-1.205-1.66-1.205-.51 0-1.055.174-1.57.501-.509.324-.796.722-.897 1.251l-.026.08c-4.007 12.5-7.313 18.57-10.111 18.57-.407-.002-.727-.137-.964-.4-.732-.81-.553-2.739-.305-5.408.185-1.959.39-4.18.305-6.535-.164-4.526-2.642-7.246-6.625-7.277-5.062 0-8.342 5.39-9.854 8.602l-.45.96-.1-1.056c-.377-3.977-1.71-8.726-5.926-8.758-4.914 0-8.658 5.769-10.942 10.608l-.613 1.297.06-1.432c.274-6.457.498-10.266.665-11.324.166-1.06.078-1.773-.269-2.18-.328-.382-.948-.523-1.857-.465-1.574.1-2.379 1.056-3.588 4.266-1.99 5.273-7.051 17.537-11.092 17.537-.802-.006-1.437-.28-1.902-.811-1.695-1.945-1.017-7.196-.079-14.464l.071-.55c.444-3.44-.314-4.175-2.181-4.519a3.147 3.147 0 0 0-.568-.056c-1.493 0-2.191 1.43-3.586 5.402-2.48 7.069-5.67 14.504-9.401 14.504-.137 0-.273-.01-.408-.033-1.978-.336-1.935-3.27-1.88-6.984.03-2.01.063-4.287-.247-6.344-.557-3.69-2.731-5.995-5.674-6.017-5.876-.001-9.837 7.523-11.68 12.007l-.417 1.015-.14-1.09a101.052 101.052 0 0 1-.713-8.67l-.005-.108.067-.084c10.995-13.84 15.928-23.827 15.993-32.384.042-5.466-2.48-8.75-6.746-8.783-3.118 0-10.537 2.598-13.114 26.667-.478 4.463-.74 9.039-.78 13.601v.089l-.052.073c-5.028 7.28-15.764 19.804-26.275 19.804-9.496 0-17.072-7.682-17.072-21.244 0-18.18 12.869-29.342 22.552-29.342h.08c2.104.017 3.909.605 5.219 1.7 1.36 1.139 2.07 2.734 2.056 4.613-.018 2.51-.835 3.8-1.626 5.046-.203.321-.405.64-.59.978-.187.34-.358.835-.11 1.26.255.433.905.706 1.697.712 2.306 0 5.791-3.337 5.83-8.365.04-5.262-4.393-10.684-12.301-10.684-11.968 0-28.084 13.148-28.084 34.455 0 15.073 9.45 25.49 22.251 25.49 9.085 0 18.072-6.503 26.03-17.367l.487-.66.034.82c.169 3.975.458 7.11.67 9.398.135 1.471.233 2.534.23 3.12-.01 1.285.2 2.176.642 2.723.443.548 1.146.808 2.212.816 1.788 0 2.145-1.22 2.853-4.224l.204-.859c.879-3.643 4.128-15.532 9.015-15.532.798.006 1.412.244 1.85.708 1.08 1.145.962 3.493.825 6.213-.086 1.698-.174 3.452-.003 5.16.46 4.612 2.45 6.867 6.087 6.894 3.735 0 7.63-4.02 9.686-7.758l.389-.706.15.792c.38 2 2.077 8.566 7.392 8.566 4.817 0 8.947-5.073 13.478-15.51l.591-1.364-.036 1.486c-.097 3.956-.31 8.786-.313 12.521 0 2.888.292 3.99 1.626 3.99.094 0 .195.015.302.015 1.282 0 2.152-.766 2.584-2.277 3.408-11.878 6.352-17.41 9.27-17.41 2.858.022 3.126 5.247 3.356 14.48l.015.646c.07 3.23.185 4.657 2.191 4.673 1.522 0 1.902-1.195 2.689-4.139.148-.563.315-1.178.505-1.842 2.751-9.547 5.034-13.442 7.873-13.442 2.431.02 2.567 2.525 2.61 3.35.095 1.763-.088 3.609-.262 5.392-.164 1.657-.331 3.369-.269 4.965.149 3.734 2.194 5.805 5.758 5.833 4.627 0 8.8-5.409 12.458-16.077l.253-.743.29.731c.664 1.674 1.529 3.944 2.328 6.653l.032.103-.045.098c-3.54 7.862-6.039 16.62-6.075 21.298-.047 6.163 2.743 10.168 7.105 10.201h.075c2.373 0 7.907-.952 8.014-9.771.042-3.615-.81-8.726-2.538-15.192l-.198-.74.639.423c2.204 1.462 4.687 2.245 7.185 2.265zM128.88 109.639c-1.557 6.267-4.543 13.827-9.926 14.26-.15.011-.297.018-.439.018-2.232 0-3.484-1.462-3.72-4.345-.297-3.609 1.26-7.836 3.962-10.77 1.722-1.869 3.663-2.898 5.465-2.898 2.314.018 3.91 1.846 4.643 3.55l.039.09-.024.095zm49.363-35.036l.076-.002c.508 0 .954.255 1.326.758 1.766 2.389 1.792 11.105-1.245 21.023-1.737 5.669-4.071 11.023-6.751 15.485l-.428.71-.109-.822c-.315-2.398-.47-4.895-.58-7.022-.776-14.99 3.76-29.925 7.71-30.13zm-30.133 41.476l.395-.78.15.861c.734 4.253 3.047 11.396 10.283 11.451 3.189.001 6.74-1.912 10.327-5.533l.263-.266.192.321c2.415 4.04 5.655 6.185 9.104 6.009 5.08-.263 8.161-3.864 8.433-6.362.07-.637-.1-1.236-.463-1.642-.457-.51-1.12-.567-1.608-.102l-.231.22c-1.183 1.137-3.386 3.251-5.786 3.376-2.938.145-5.112-1.613-6.517-5.24l.04-.28c8.081-10.57 13.753-26.698 13.193-37.515-.258-5.007-1.714-10.975-7.181-10.975-2.503.119-4.407 1.117-6.07 2.977-5.073 5.675-7.728 19.646-6.764 35.592.2 3.313.775 6.408 1.71 9.2l-.054.28c-3 3.504-5.958 5.435-8.332 5.435-5.712 0-5.52-9.576-5.068-17.52.098-1.713.243-2.804-.264-3.424-.363-.444-.968-.663-1.851-.67-2.135 0-2.56.417-3.601 3.433-2.164 6.269-6.435 16.785-10.731 16.785-1.191-.009-2.1-.417-2.722-1.21-2.084-2.66-.501-9.295.77-14.627.228-.959.448-1.88.635-2.73.28-1.265.194-2.188-.254-2.745-.447-.556-1.342-.783-2.523-.689-1.84.147-3.017.917-3.584 4.417l-.114.728-.428-.518c-.804-1.186-2.37-2.6-5.279-2.6-.255 0-.518.01-.79.032-3.105.255-6.64 2.417-9.225 5.644-3.02 3.768-4.462 8.537-4.06 13.428.02.259.058.507.095.755l-.073.24c-1.807 1.968-3.648 2.966-5.471 2.967-2.815-.023-4.43-2.115-4.43-5.6 0-5.865 3.975-23.548 3.975-29.95 0-6.812-3.036-10.522-8.307-10.562-7.776 0-13.777 8.735-19.517 26.704a296.39 296.39 0 0 0-1.588 5.19l-.806 2.703.24-2.81c.532-6.26.899-12.35 1.088-18.102.285-8.685-.888-14.274-3.59-17.087-1.456-1.517-3.385-2.264-5.895-2.283-9.486 0-13.998 15.885-17.283 27.095-.75 2.56-2.053 7.554-3.208 12.094.702-7.698 1.974-21.265 1.877-29.073-.118-9.579-3.307-13.873-10.342-13.927-3.844 0-6.451 1.868-7.977 3.435-2.448 2.514-3.975 6.189-3.89 9.362.052 1.93 1.236 3.647 2.133 3.647.585 0 .909-.78 1.05-1.245 2.176-7.195 4.991-10.693 8.607-10.693 1.5.012 2.615.454 3.451 1.35 2.824 3.03 2.31 11.212 1.379 26.064-.3 4.786-.641 10.21-.929 16.379-.049 1.058-.115 2.081-.177 3.052-.275 4.285-.493 7.67 1.132 7.922 2.114.33 3.49-.529 4.194-2.621 1.044-3.106 3.387-11.591 7.918-27.1 4.349-14.88 7.634-20.295 11.837-20.295 4.856 0 5.218 8.338 4.328 25.932-.19 3.729-.444 7.954-.638 12.553-.028.645-.058 1.271-.088 1.875-.187 3.805-.335 6.811.753 7.962.339.358.8.536 1.411.54 2.105 0 2.738-1.846 3.786-4.905.186-.54.383-1.116.602-1.72 7.213-19.897 12.546-37.16 19.704-37.16 2.148 0 3.817 1.744 3.817 5.145 0 7.85-3.838 23.022-3.838 30.713 0 2.754.793 5.23 2.292 6.968 1.538 1.783 3.69 2.736 6.222 2.756 2.45 0 4.946-1.164 7.474-3.459l.237-.215.19.256c1.665 2.24 4.352 3.442 7.252 3.218 4.449-.346 8.182-4.308 9.57-8.042l.272-.732.272.732c1.03 2.771 3.262 6.112 8.032 5.725 5.202-.418 9.33-7.492 10.862-10.514z"/><path d="M153.848 86.672c-1.987 0-3.593 1.566-3.607 3.49-.015 1.939 1.579 3.528 3.553 3.544l.029.288v-.288c1.958 0 3.563-1.565 3.578-3.49.015-1.939-1.579-3.529-3.553-3.544M278.789 86.672c-1.987 0-3.593 1.566-3.607 3.49-.016 1.939 1.578 3.528 3.553 3.544l.028.288v-.288c1.959 0 3.564-1.565 3.579-3.49.015-1.939-1.579-3.529-3.553-3.544"/></g></svg>
