<svg xmlns="http://www.w3.org/2000/svg" viewBox="0 0 400 340" aria-labelledby="middleman-logo__title" role="img">
  <title id="middleman-logo__title">Middleman</title>
  <path fill-opacity=".45" d="M0 40L200 0v30L0 60z"/>
  <path fill="#fff" d="M200 0l200 40v20L200 30z"/>
  <path fill-opacity=".45" d="M0 78v184l45 5V152l45 83 47-83v129l53 7V52l-57 8-43 83-43-70z"/>
  <path fill="#fff" d="M400 78v184l-45 5V152l-45 83-47-83v129l-53 7V52l57 8 43 83 43-70z"/>
  <path fill-opacity=".45" d="M0 300l200 40v-30L0 280z"/>
  <path fill="#fff" d="M200 340l200-40v-20l-200 30z"/>
</svg>
