<?xml version="1.0" encoding="iso-8859-1"?>
<!-- Generator: Adobe Illustrator 16.0.0, SVG Export Plug-In . SVG Version: 6.00 Build 0)  -->
<!DOCTYPE svg PUBLIC "-//W3C//DTD SVG 1.1//EN" "http://www.w3.org/Graphics/SVG/1.1/DTD/svg11.dtd">
<svg version="1.1" id="Layer_1" xmlns="http://www.w3.org/2000/svg" xmlns:xlink="http://www.w3.org/1999/xlink" x="0px" y="0px"
	 width="400px" height="400px" preserveAspectRatio="xMidYMid meet" viewBox="0 0 400 400" style="enable-background:new 0 0 400 400;" xml:space="preserve">
<rect style="fill:#002B36;" width="400" height="400"/>
<g>
	<polygon style="fill:#EFE8D5;" points="320,88.773 320,231.242 293.977,233.385 293.977,149.134 268.472,207.895 267.891,207.928
		241.018,148.957 241.018,237.75 210.301,240.279 210.301,79.871 243.202,82.541 268.398,143.014 292.313,86.525 	"/>
</g>
<polygon style="fill:#EFE8D5;" points="320,55.062 199,38.844 199,56.691 320,69.081 "/>
<polygon style="fill:#EFE8D5;" points="320,251.929 199,264.319 199,282.168 320,265.948 "/>
<g>
	<polygon style="fill:#C6BDA8;" points="80.196,88.773 80.196,231.242 106.22,233.385 106.22,149.134 131.725,207.895
		132.306,207.928 159.179,148.957 159.179,237.75 189.896,240.279 189.896,79.871 156.994,82.541 131.796,143.014 107.882,86.525
		"/>
</g>
<polygon style="fill:#C6BDA8;" points="78,55.062 199,38.844 199,56.691 78,69.081 "/>
<polygon style="fill:#C6BDA8;" points="78,251.929 199,264.319 199,282.168 78,265.948 "/>
<g>
	<path style="fill:#C6BDA8;" d="M47.394,319.152h9.841l8.017,13.01l8.017-13.01h9.841v33.604h-9.265v-19.298l-8.593,13.153h-0.192
		l-8.544-13.057v19.201h-9.121V319.152z"/>
	<path style="fill:#C6BDA8;" d="M89.25,319.152h9.361v33.604H89.25V319.152z"/>
	<path style="fill:#C6BDA8;" d="M104.753,319.152h12.961c12.001,0,18.961,6.913,18.961,16.609v0.097
		c0,9.696-7.057,16.897-19.154,16.897h-12.769V319.152z M117.859,344.499c5.568,0,9.265-3.072,9.265-8.497v-0.096
		c0-5.377-3.696-8.496-9.265-8.496h-3.792v17.089H117.859z"/>
	<path style="fill:#C6BDA8;" d="M141.473,319.152h12.961c12.001,0,18.961,6.913,18.961,16.609v0.097
		c0,9.696-7.057,16.897-19.154,16.897h-12.769V319.152z M154.579,344.499c5.568,0,9.265-3.072,9.265-8.497v-0.096
		c0-5.377-3.696-8.496-9.265-8.496h-3.792v17.089H154.579z"/>
	<path style="fill:#C6BDA8;" d="M178.193,319.152h9.313v25.443h16.273v8.16h-25.586V319.152z"/>
	<path style="fill:#C6BDA8;" d="M207.762,319.152h27.026v7.922h-17.81v5.088h16.129v7.345h-16.129v5.328h18.049v7.921h-27.266
		V319.152z"/>
</g>
<g>
	<path style="fill:#EFE8D5;" d="M241.055,319.152h9.842l8.017,13.01l8.017-13.01h9.841v33.604h-9.265v-19.298l-8.593,13.153h-0.192
		l-8.545-13.057v19.201h-9.121V319.152z"/>
	<path style="fill:#EFE8D5;" d="M294.336,318.913h8.977l14.306,33.843h-9.985l-2.447-6h-12.962l-2.399,6h-9.793L294.336,318.913z
		 M302.496,339.507l-3.744-9.553l-3.792,9.553H302.496z"/>
	<path style="fill:#EFE8D5;" d="M320.879,319.152h8.689l13.824,17.762v-17.762h9.217v33.604h-8.16l-14.354-18.434v18.434h-9.217
		V319.152z"/>
</g>
</svg>
