<svg width="400" height="200" viewBox="0 0 400 200" xmlns="http://www.w3.org/2000/svg"><title>Nest</title><path d="M236.386 106.836c2.874 1.23 4.59 3.542 4.59 6.18 0 3.491-2.685 5.571-7.185 5.571-4.776 0-6.995-4.205-7.562-5.492l-.7-1.592h-8.943l-.014-.007h-8.287c-2.262 3.776-6.82 7.255-12.121 7.255-9.566 0-14.34-7.474-14.95-14.854h39.095v-1.616c0-3.06-.318-5.939-.912-8.612 1.119 3.43 3.67 6.986 9.018 9.505 1.952.931 4.9 2.32 7.971 3.662zm-40.783-23.45c8.001 0 11.92 5.521 13.056 11.142h-26.63c1.39-5.632 6.328-11.141 13.574-11.141zm78.455.165V73.454h-8.311V61.52h-10.205v11.935h-20.551c-9.491.006-16.38 6.387-16.38 15.181 0 .946.084 1.966.275 3.022-3.234-11.205-11.758-18.203-23.206-18.203-14.004 0-24.71 10.904-25.606 25.673v-3.139c0-12.427-10.111-22.534-22.537-22.534C135.11 73.454 125 83.561 125 95.988v32.307h10.329V95.988c0-6.727 5.475-12.205 12.208-12.205 6.73 0 12.208 5.478 12.208 12.205v32.307h10.329V103.16c.902 14.823 11.745 25.765 25.93 25.765 8.659 0 16.297-5.031 20.623-10.854 3.228 6.898 9.535 10.854 17.327 10.854 9.03 0 18.17-5.768 18.17-16.796 0-6.6-3.834-11.996-10.796-15.194-.89-.406-1.61-.746-2.297-1.071l-.093-.048c-.78-.367-1.531-.72-2.464-1.147-4.55-2.042-6.716-3.537-6.716-6.519 0-2.624 2.346-4.6 5.246-4.6h20.538v28.77c0 9.158 7.45 16.605 16.605 16.605V118.72c-3.53 0-6.4-2.87-6.4-6.4V83.55c4.082.004 7.227 0 8.31 0z" fill="#4A4A4A" fill-rule="evenodd"/></svg>
