<svg xmlns="http://www.w3.org/2000/svg" xmlns:xlink="http://www.w3.org/1999/xlink" viewBox="0 0 584 208" enable-background="new 0 0 584 208">
    <defs>
        <path id="a" d="M252.5 124.6h-8.7V104c0-3.9-.6-6.7-1.9-8.4-1.2-1.7-3.3-2.6-6.2-2.6-3.5 0-6.2 1.3-8.1 3.8v27.8h-8.7V66.8h8.7V89c2.7-2.3 5.7-3.4 8.9-3.4 10.6 0 16 6.1 16 18.4v20.6z"/>
    </defs>
    <clipPath id="b">
        <use xlink:href="#a" overflow="visible"/>
    </clipPath>
    <path clip-path="url(#b)" fill-rule="evenodd" clip-rule="evenodd" fill="#C52D2F" d="M213.9 61.8h43.6v67.8h-43.6z"/>
    <defs>
        <path id="c" d="M267.7 105.5c0 3.9.9 6.9 2.7 9.2 1.8 2.3 4.4 3.4 7.6 3.4s5.8-1.1 7.6-3.4c1.8-2.3 2.7-5.3 2.7-9.2 0-3.9-.9-6.9-2.7-9.1-1.8-2.2-4.4-3.4-7.6-3.4s-5.8 1.1-7.6 3.4c-1.8 2.2-2.7 5.2-2.7 9.1zm-8.9 0c0-2.8.4-5.4 1.3-7.8.9-2.4 2.2-4.5 3.9-6.3 1.7-1.8 3.7-3.2 6.1-4.2 2.4-1 5.1-1.5 8-1.5 2.9 0 5.6.5 7.9 1.5 2.4 1 4.4 2.4 6.1 4.2 1.7 1.8 3 3.9 3.9 6.3.9 2.4 1.4 5 1.4 7.8s-.4 5.4-1.3 7.8c-.9 2.4-2.2 4.5-3.9 6.3-1.7 1.8-3.7 3.2-6.1 4.2-2.4 1-5.1 1.5-8 1.5-3 0-5.7-.5-8-1.5-2.4-1-4.4-2.4-6.1-4.2s-3-3.9-3.9-6.3c-.9-2.4-1.3-5-1.3-7.8z"/>
    </defs>
    <clipPath id="d">
        <use xlink:href="#c" overflow="visible"/>
    </clipPath>
    <path clip-path="url(#d)" fill-rule="evenodd" clip-rule="evenodd" fill="#C52D2F" d="M253.8 80.6h48.6v49.8h-48.6z"/>
    <defs>
        <path id="e" d="M336.7 124.6h-8l-.4-2.9c-2.6 2.4-5.6 3.6-9.2 3.6-10.4 0-15.6-6-15.6-18v-21h8.7v20.5c0 3.9.6 6.7 1.9 8.4 1.3 1.8 3.3 2.7 6.1 2.7 3.4 0 6-1.2 7.7-3.5v-28h8.7v38.2z"/>
    </defs>
    <clipPath id="f">
        <use xlink:href="#e" overflow="visible"/>
    </clipPath>
    <path clip-path="url(#f)" fill-rule="evenodd" clip-rule="evenodd" fill="#C52D2F" d="M298.6 81.3h43.2v49.1h-43.2z"/>
    <defs>
        <path id="g" d="M360.9 126.8l-5.3-.8c-1.6.5-3 1.3-4 2.2-1 1-1.5 2.1-1.5 3.5 0 1.7.9 3.1 2.7 4.2 1.8 1.1 4.3 1.6 7.6 1.6 3.2 0 5.8-.5 7.8-1.5s3-2.4 3-4c0-1.5-.9-2.6-2.6-3.4-1.9-.7-4.4-1.3-7.7-1.8zm-2.1-34.6c-2.5 0-4.4.8-5.7 2.3-1.3 1.5-2 3.6-2 6.2s.7 4.7 2 6.2 3.2 2.3 5.7 2.3 4.4-.8 5.7-2.3c1.3-1.6 2-3.7 2-6.3 0-2.6-.7-4.7-2-6.2-1.3-1.4-3.2-2.2-5.7-2.2zm1.7 51.6c-3 0-5.6-.3-7.9-.9s-4.1-1.5-5.6-2.5c-1.5-1.1-2.6-2.3-3.4-3.6-.8-1.4-1.2-2.8-1.2-4.4 0-3.7 2.2-6.6 6.5-8.6-2.4-1.3-3.6-3.1-3.6-5.3 0-2.3 1.3-4.1 4-5.4-4.1-2.8-6.1-7-6.1-12.4 0-2.2.4-4.2 1.1-6 .7-1.9 1.7-3.5 3.1-4.8 1.3-1.3 3-2.4 4.9-3.2 1.9-.8 4.1-1.2 6.5-1.2 3.4 0 6.5.8 9 2.5 2.5-1.2 5.3-1.8 8.6-1.8h1.9l-.7 5.6h-2.9c-.9 0-1.9.1-2.9.2 1.8 2.5 2.7 5.4 2.7 8.6 0 2.1-.3 4-1 5.8-.7 1.8-1.7 3.4-3 4.8s-3 2.5-4.9 3.3c-1.9.8-4.1 1.2-6.5 1.2-1.6 0-3.1-.2-4.5-.5-.8.4-1.2.9-1.2 1.5 0 .5.2.8.5 1.2.3.3.9.6 1.7.8.8.3 1.8.5 3.1.7s3 .5 5 .7c1.7.3 3.4.6 5.2 1 1.8.4 3.4 1 4.9 1.8 1.5.8 2.7 1.9 3.7 3.2 1 1.3 1.5 3.1 1.6 5.2 0 3.7-1.6 6.7-4.9 8.9-3.2 2.5-7.8 3.6-13.7 3.6z"/>
    </defs>
    <clipPath id="h">
        <use xlink:href="#g" overflow="visible"/>
    </clipPath>
    <path clip-path="url(#h)" fill-rule="evenodd" clip-rule="evenodd" fill="#C52D2F" d="M337.5 80.6h46.7v68.3h-46.7z"/>
    <defs>
        <path id="i" d="M467.7 93c-3 0-5.3 1.1-7 3.3-1.7 2.2-2.5 5.3-2.5 9.2 0 4 .8 7.1 2.5 9.3 1.7 2.2 4 3.3 7 3.3 3.1 0 5.5-1.2 7.4-3.5 1.8-2.3 2.7-5.4 2.7-9.1 0-3.7-.9-6.7-2.7-9-1.8-2.4-4.3-3.5-7.4-3.5zm.6 32.3c-4 0-7.4-1.3-10.2-3.8l-.3 3h-8.1V66.8h8.7v22.1c2.5-2.2 5.8-3.3 9.9-3.3 2.8 0 5.3.5 7.6 1.5s4.2 2.4 5.8 4.2c1.6 1.8 2.8 3.9 3.7 6.3.9 2.4 1.3 5 1.3 7.8s-.4 5.4-1.3 7.8c-.8 2.4-2.1 4.5-3.7 6.3-1.6 1.8-3.5 3.2-5.8 4.2-2.2 1.1-4.7 1.6-7.6 1.6z"/>
    </defs>
    <clipPath id="j">
        <use xlink:href="#i" overflow="visible"/>
    </clipPath>
    <path clip-path="url(#j)" fill-rule="evenodd" clip-rule="evenodd" fill="#4F5261" d="M444.7 61.8h47v68.6h-47z"/>
    <defs>
        <path id="k" d="M416.5 124.6h-8.7V104c0-3.9-.6-6.7-1.9-8.4-1.2-1.7-3.3-2.6-6.2-2.6-3.5 0-6.2 1.3-8.1 3.8v27.8h-8.7V66.8h8.7V89c2.7-2.3 5.7-3.4 8.9-3.4 10.6 0 16 6.1 16 18.4v20.6z"/>
    </defs>
    <clipPath id="l">
        <use xlink:href="#k" overflow="visible"/>
    </clipPath>
    <path clip-path="url(#l)" fill-rule="evenodd" clip-rule="evenodd" fill="#C52D2F" d="M377.9 61.8h43.6v67.8h-43.6z"/>
    <defs>
        <path id="m" d="M443.3 118.2l-.8 7.2h-6.6c-1.7 0-3.2-.3-4.5-.8-1.3-.5-2.4-1.2-3.2-2.1-.8-.9-1.5-1.9-1.9-3.1-.4-1.2-.6-2.5-.6-3.9V93.4h-5.8l.8-7.1h5V74.9l8.7-.9v12.3h8.9v7.1h-8.9v18.2c0 1.6.1 2.8.2 3.7.1.9.4 1.6.8 2 .4.4 1.1.7 1.9.8.9.1 2.1.2 3.6.2h2.4z"/>
    </defs>
    <clipPath id="n">
        <use xlink:href="#m" overflow="visible"/>
    </clipPath>
    <path clip-path="url(#n)" fill-rule="evenodd" clip-rule="evenodd" fill="#C52D2F" d="M414.9 69h33.5v61.4h-33.5z"/>
    <defs>
        <path id="o" d="M500.3 105.5c0 3.9.9 6.9 2.7 9.2 1.8 2.3 4.4 3.4 7.6 3.4 3.2 0 5.8-1.1 7.6-3.4 1.8-2.3 2.7-5.3 2.7-9.2 0-3.9-.9-6.9-2.7-9.1-1.8-2.2-4.4-3.4-7.6-3.4-3.2 0-5.8 1.1-7.6 3.4-1.8 2.2-2.7 5.2-2.7 9.1zm-8.9 0c0-2.8.4-5.4 1.3-7.8.9-2.4 2.2-4.5 3.9-6.3 1.7-1.8 3.7-3.2 6.1-4.2 2.4-1 5.1-1.5 8-1.5s5.6.5 7.9 1.5c2.4 1 4.4 2.4 6.1 4.2 1.7 1.8 3 3.9 3.9 6.3.9 2.4 1.4 5 1.4 7.8s-.4 5.4-1.3 7.8c-.9 2.4-2.2 4.5-3.9 6.3-1.7 1.8-3.7 3.2-6.1 4.2-2.4 1-5.1 1.5-8 1.5-3 0-5.7-.5-8-1.5-2.4-1-4.4-2.4-6.1-4.2-1.7-1.8-3-3.9-3.9-6.3-.9-2.4-1.3-5-1.3-7.8z"/>
    </defs>
    <clipPath id="p">
        <use xlink:href="#o" overflow="visible"/>
    </clipPath>
    <path clip-path="url(#p)" fill-rule="evenodd" clip-rule="evenodd" fill="#4F5261" d="M486.3 80.6h48.6v49.8h-48.6z"/>
    <defs>
        <path id="q" d="M554.4 118.2l-.8 7.2H547c-1.7 0-3.2-.3-4.5-.8-1.3-.5-2.4-1.2-3.2-2.1-.8-.9-1.5-1.9-1.9-3.1-.4-1.2-.6-2.5-.6-3.9V93.4H531l.8-7.1h5V74.9l8.7-.9v12.3h8.9v7.1h-8.9v18.2c0 1.6.1 2.8.2 3.7.1.9.4 1.6.8 2 .4.4 1.1.7 1.9.8.9.1 2.1.2 3.6.2h2.4z"/>
    </defs>
    <clipPath id="r">
        <use xlink:href="#q" overflow="visible"/>
    </clipPath>
    <path clip-path="url(#r)" fill-rule="evenodd" clip-rule="evenodd" fill="#4F5261" d="M526 69h33.5v61.4H526z"/>
    <defs>
        <path id="s" d="M212.7 118.2l-.8 7.2h-6.6c-1.7 0-3.2-.3-4.5-.8-1.3-.5-2.4-1.2-3.2-2.1-.8-.9-1.5-1.9-1.9-3.1-.4-1.2-.6-2.5-.6-3.9V93.4h-5.8l.8-7.1h5V74.9l8.7-.9v12.3h8.9v7.1h-8.9v18.2c0 1.6.1 2.8.2 3.7.1.9.4 1.6.8 2 .4.4 1.1.7 1.9.8.9.1 2.1.2 3.6.2h2.4z"/>
    </defs>
    <clipPath id="t">
        <use xlink:href="#s" overflow="visible"/>
    </clipPath>
    <path clip-path="url(#t)" fill-rule="evenodd" clip-rule="evenodd" fill="#C52D2F" d="M184.3 69h33.5v61.4h-33.5z"/>
    <path fill="#C52D2F" d="M92.9 41.6c-35 0-63.4 28.4-63.4 63.4s28.4 63.4 63.4 63.4 63.4-28.4 63.4-63.4-28.4-63.4-63.4-63.4z"/>
    <path fill="#fff" d="M76.5 109.2H74v18c.9 1 1.4 2.3 1.4 3.7 0 1.8-.8 3.4-2.1 4.4l-1.6-1.6c.9-.7 1.4-1.7 1.4-2.9 0-2-1.6-3.6-3.6-3.6s-3.6 1.6-3.6 3.6c0 1.2.6 2.2 1.4 2.8l-1.6 1.6c-1.3-1.1-2.1-2.6-2.1-4.4 0-1.4.5-2.7 1.4-3.7v-28c.1-1.1.9-1.9 2-1.9h51.4c1.1 0 1.9.9 2 1.9v28.1c.9 1 1.4 2.3 1.4 3.7 0 1.8-.8 3.4-2.1 4.4l-1.6-1.6c.9-.7 1.4-1.7 1.4-2.8 0-2-1.6-3.6-3.6-3.6s-3.6 1.6-3.6 3.6c0 1.2.6 2.2 1.4 2.9l-1.6 1.6c-1.3-1.1-2.1-2.7-2.1-4.4 0-1.4.5-2.7 1.4-3.7v-18h-2.6v38l1.7 1v3.1H93.7v-3.1l1.7-1v-11.5h-5.1v11.5l1.7 1v3.1H74.8v-3.1l1.7-1v-38.1zM92.9 68c3.6 0 6.8 1.3 8.8 3.2l1.6-2.2c-2.5-2.2-6.2-3.6-10.4-3.6s-7.9 1.4-10.4 3.7l1.6 2.2c2-2 5.2-3.3 8.8-3.3M93 62.3c3.9 0 7.5 1.1 10.3 3.2.5.4 1 .9 1.5 1.3l1.6-2.3c-3.1-3-7.9-5-13.3-5-5.6 0-10.5 2-13.5 5.2l1.6 2.3c.5-.5 1.1-1.1 1.7-1.6 2.6-2 6.2-3.1 10.1-3.1M92.9 56.8c6.2 0 11.7 2.3 14.9 5.7l1.6-2.2c-3.8-3.7-9.8-6.2-16.5-6.2-6.7 0-12.7 2.4-16.5 6.2l1.6 2.2c3.2-3.5 8.7-5.7 14.9-5.7"/>
    <g fill="#fff">
        <path d="M87.9 83.3c0 .9-.8 1.7-1.7 1.7-.9 0-1.7-.8-1.7-1.7 0-.9.8-1.7 1.7-1.7 1 0 1.7.7 1.7 1.7zM106 74.1H79.8c-1.1 0-1.9.9-1.9 1.9v17.1c0 1.1.9 1.9 1.9 1.9H106c1.1 0 1.9-.9 1.9-1.9v-17c0-1.1-.9-2-1.9-2zM86.2 86.6c-1.8 0-3.3-1.5-3.3-3.3 0-1.8 1.5-3.3 3.3-3.3 1.8 0 3.3 1.5 3.3 3.3.1 1.8-1.4 3.3-3.3 3.3zm13.4 0c-1.8 0-3.3-1.5-3.3-3.3 0-1.8 1.5-3.3 3.3-3.3 1.8 0 3.3 1.5 3.3 3.3 0 1.8-1.5 3.3-3.3 3.3zM101.3 83.3c0 .9-.8 1.7-1.7 1.7-.9 0-1.7-.8-1.7-1.7 0-.9.8-1.7 1.7-1.7.9 0 1.7.7 1.7 1.7z"/>
    </g>
</svg>
