<svg width="400" height="200" viewBox="0 0 400 200" xmlns="http://www.w3.org/2000/svg"><title>thoughtbot</title><g fill-rule="nonzero" fill="none"><path d="M175.97 112.86h-5.293v-12.533c0-2.373-.365-4.076-1.095-5.11-.73-1.034-2.008-1.582-3.772-1.582-2.13 0-3.772.79-4.928 2.312v16.912h-5.293V77.696h5.293v13.506c1.643-1.4 3.468-2.069 5.415-2.069 6.448 0 9.733 3.711 9.733 11.194v12.532h-.06zm3.832-11.62c0-1.704.244-3.286.852-4.746a11.29 11.29 0 0 1 2.373-3.832 10.653 10.653 0 0 1 3.71-2.556c1.46-.608 3.042-.912 4.868-.912 1.764 0 3.406.304 4.806.912 1.46.609 2.676 1.46 3.71 2.556a11.29 11.29 0 0 1 2.373 3.832c.548 1.46.852 3.042.852 4.746 0 1.703-.243 3.285-.79 4.745a11.29 11.29 0 0 1-2.373 3.832 10.653 10.653 0 0 1-3.712 2.556c-1.46.608-3.041.912-4.866.912-1.826 0-3.468-.304-4.867-.912-1.46-.609-2.677-1.46-3.65-2.556a11.29 11.29 0 0 1-2.373-3.832c-.67-1.46-.913-3.042-.913-4.745zm5.415 0c0 2.311.547 4.197 1.642 5.597 1.095 1.399 2.677 2.068 4.624 2.068 1.947 0 3.528-.67 4.623-2.068 1.096-1.4 1.643-3.225 1.643-5.597 0-2.373-.547-4.198-1.643-5.537-1.095-1.338-2.676-2.068-4.623-2.068s-3.529.67-4.624 2.068c-1.095 1.339-1.642 3.164-1.642 5.537zm41.977 11.62h-4.867l-.243-1.765c-1.582 1.46-3.407 2.19-5.597 2.19-6.327 0-9.49-3.65-9.49-10.89V89.56h5.292v12.471c0 2.312.365 4.076 1.156 5.11.79 1.096 2.007 1.643 3.71 1.643 2.07 0 3.651-.73 4.685-2.129V89.62h5.293v23.24h.06zm14.479 11.68c-1.825 0-3.407-.183-4.806-.548-1.4-.365-2.494-.851-3.407-1.52-.912-.67-1.582-1.4-2.068-2.19-.487-.852-.73-1.704-.73-2.677 0-2.312 1.338-4.016 3.954-5.232-1.46-.791-2.19-1.886-2.19-3.225 0-1.399.79-2.494 2.433-3.285-2.494-1.703-3.71-4.258-3.71-7.544 0-1.338.243-2.555.668-3.65.426-1.156 1.035-2.13 1.886-2.92.791-.79 1.826-1.46 2.981-1.947 1.156-.486 2.495-.73 3.955-.73 2.068 0 3.893.487 5.475 1.521 1.521-.73 3.224-1.095 5.232-1.095h1.156l-.426 3.407h-1.764c-.548 0-1.156.06-1.764.122 1.095 1.52 1.642 3.285 1.642 5.232 0 1.277-.182 2.433-.608 3.528a9.096 9.096 0 0 1-1.825 2.92c-.791.852-1.825 1.521-2.981 2.008-1.156.487-2.495.73-3.955.73-.973 0-1.886-.122-2.737-.304-.487.243-.73.547-.73.912 0 .304.121.487.304.73.182.183.547.365 1.034.487.487.182 1.095.304 1.886.426.79.121 1.825.304 3.042.426 1.034.182 2.068.365 3.163.608 1.095.243 2.069.608 2.981 1.156.913.547 1.643 1.156 2.251 1.947.609.79.913 1.886.974 3.163 0 2.251-.974 4.076-2.981 5.415-1.947 1.46-4.746 2.129-8.335 2.129zm-1.034-31.392c-1.521 0-2.677.487-3.468 1.4-.79.912-1.217 2.19-1.217 3.771 0 1.582.426 2.86 1.217 3.772.791.913 1.947 1.4 3.468 1.4 1.52 0 2.677-.487 3.467-1.4.791-.973 1.217-2.25 1.217-3.832 0-1.582-.426-2.86-1.217-3.772-.79-.852-1.946-1.339-3.467-1.339zm1.277 21.05l-3.224-.487c-.973.304-1.825.79-2.433 1.338-.609.609-.913 1.278-.913 2.13 0 1.034.548 1.886 1.643 2.555 1.095.669 2.616.973 4.623.973 1.947 0 3.529-.304 4.745-.912 1.217-.609 1.826-1.46 1.826-2.434 0-.912-.548-1.582-1.582-2.068-1.156-.426-2.677-.791-4.685-1.095zM307.255 113.285c-2.434 0-4.441-.79-6.206-2.312l-.182 1.825h-4.928V77.696h5.293V91.14c1.52-1.339 3.528-2.008 6.023-2.008 1.703 0 3.224.304 4.623.913a9.944 9.944 0 0 1 3.529 2.555c.973 1.095 1.703 2.372 2.25 3.832.548 1.46.792 3.042.792 4.746 0 1.703-.244 3.285-.791 4.745-.487 1.46-1.278 2.738-2.251 3.833a9.944 9.944 0 0 1-3.529 2.555c-1.338.669-2.859.973-4.623.973zm-.426-19.65c-1.825 0-3.224.67-4.259 2.008-1.034 1.338-1.52 3.224-1.52 5.597 0 2.433.486 4.319 1.52 5.657 1.035 1.339 2.434 2.008 4.259 2.008 1.886 0 3.346-.73 4.502-2.13 1.095-1.399 1.642-3.285 1.642-5.535 0-2.251-.547-4.077-1.642-5.476-1.034-1.46-2.555-2.129-4.502-2.129zM275.741 112.86h-5.292v-12.533c0-2.373-.365-4.076-1.156-5.11-.73-1.034-2.008-1.582-3.772-1.582-2.13 0-3.772.79-4.928 2.312v16.912H255.3V77.696h5.293v13.506c1.643-1.4 3.468-2.069 5.415-2.069 6.448 0 9.733 3.711 9.733 11.194v12.532zm16.305-3.894l-.487 4.38h-4.015a7.58 7.58 0 0 1-2.738-.487c-.79-.304-1.46-.73-1.947-1.277-.486-.548-.912-1.156-1.156-1.886a7.354 7.354 0 0 1-.365-2.312V93.878h-3.528l.487-4.32h3.041v-6.934l5.293-.548v7.483h5.415v4.32h-5.415v11.072c0 .973.061 1.703.122 2.25.06.548.243.974.487 1.217.243.244.669.426 1.155.487.548.06 1.278.122 2.19.122h1.46v-.061zM321.308 101.24c0-1.704.243-3.286.852-4.746a11.29 11.29 0 0 1 2.372-3.832 10.653 10.653 0 0 1 3.711-2.556c1.46-.608 3.042-.912 4.867-.912 1.765 0 3.407.304 4.806.912 1.46.609 2.677 1.46 3.65 2.556.974 1.095 1.826 2.372 2.373 3.832.548 1.46.852 3.042.852 4.746 0 1.703-.304 3.285-.852 4.745a11.29 11.29 0 0 1-2.372 3.832 10.653 10.653 0 0 1-3.711 2.556c-1.46.608-3.042.912-4.867.912-1.826 0-3.468-.304-4.867-.912a10.653 10.653 0 0 1-3.711-2.556 11.29 11.29 0 0 1-2.373-3.832c-.487-1.46-.73-3.042-.73-4.745zm5.414 0c0 2.311.548 4.197 1.643 5.597 1.095 1.399 2.677 2.068 4.624 2.068 1.946 0 3.528-.67 4.623-2.068 1.095-1.4 1.643-3.225 1.643-5.597 0-2.373-.548-4.198-1.643-5.537-1.095-1.338-2.677-2.068-4.623-2.068-1.947 0-3.529.67-4.624 2.068-1.095 1.339-1.643 3.164-1.643 5.537zm32.913 7.726l-.487 4.38h-4.015a7.58 7.58 0 0 1-2.738-.487c-.79-.304-1.46-.73-1.946-1.277-.487-.548-.913-1.156-1.156-1.886a7.354 7.354 0 0 1-.365-2.312V93.878h-3.529l.487-4.32h3.042v-6.934l5.293-.548v7.483h5.414v4.32h-5.414v11.072c0 .973.06 1.703.121 2.25.061.548.244.974.487 1.217.243.244.67.426 1.156.487.547.06 1.277.122 2.19.122h1.46v-.061zM151.757 108.966l-.487 4.38h-4.015a7.58 7.58 0 0 1-2.738-.487c-.79-.304-1.46-.73-1.947-1.277a4.664 4.664 0 0 1-1.156-1.886 7.354 7.354 0 0 1-.365-2.312V93.878h-3.528l.487-4.32h3.041v-6.934l5.293-.548v7.483h5.415v4.32h-5.415v11.072c0 .973.061 1.703.122 2.25.06.548.243.974.487 1.217.243.244.669.426 1.155.487.548.06 1.278.122 2.19.122h1.46v-.061zM78.875 62.365c-21.293 0-38.57 17.278-38.57 38.57 0 21.293 17.277 38.57 38.57 38.57 21.292 0 38.57-17.277 38.57-38.57 0-21.292-17.278-38.57-38.57-38.57z" fill="#4A4A4A"/><path d="M68.897 103.49h-1.52v10.951c.547.608.851 1.4.851 2.251 0 1.095-.487 2.068-1.277 2.677l-.974-.974c.548-.425.852-1.034.852-1.764 0-1.217-.973-2.19-2.19-2.19s-2.19.973-2.19 2.19c0 .73.365 1.339.851 1.704l-.973.973c-.79-.67-1.217-1.582-1.217-2.677 0-.852.304-1.642.852-2.25V97.345c.06-.67.548-1.156 1.217-1.156h31.27c.669 0 1.156.548 1.216 1.156v17.095c.548.608.852 1.4.852 2.251 0 1.095-.487 2.068-1.277 2.677l-.974-.974c.548-.425.852-1.034.852-1.703 0-1.217-.974-2.19-2.19-2.19-1.217 0-2.19.973-2.19 2.19 0 .73.365 1.338.851 1.764l-.973.974c-.79-.67-1.278-1.643-1.278-2.677 0-.852.305-1.643.852-2.251v-10.95h-1.582v23.117l1.035.609v1.885H79.36v-1.885l1.034-.609v-6.996h-3.102v6.996l1.034.609v1.885H67.863v-1.885l1.034-.609V103.49zm9.978-25.064c2.19 0 4.136.79 5.353 1.947l.974-1.339c-1.521-1.338-3.772-2.25-6.327-2.25-2.556 0-4.807.851-6.327 2.25l.973 1.339c1.217-1.156 3.163-1.947 5.354-1.947z" fill="#FFF"/><path d="M78.935 74.958c2.373 0 4.563.67 6.267 1.947.304.243.608.547.912.79l.973-1.398c-1.885-1.826-4.806-3.042-8.09-3.042-3.347 0-6.389 1.216-8.214 3.163l.974 1.4c.304-.366.669-.67 1.034-.974 1.52-1.217 3.772-1.886 6.144-1.886z" fill="#FFF"/><path d="M78.875 71.612c3.771 0 7.117 1.4 9.064 3.468l.974-1.339c-2.312-2.25-5.962-3.771-10.038-3.771-4.077 0-7.727 1.46-10.038 3.771l.973 1.339c1.947-2.13 5.293-3.468 9.065-3.468zm-3.042 16.122c0 .547-.487 1.034-1.035 1.034-.547 0-1.034-.487-1.034-1.034 0-.548.487-1.034 1.034-1.034.609 0 1.035.425 1.035 1.034z" fill="#FFF"/><path d="M82.95 89.741a2.025 2.025 0 0 1-2.007-2.007c0-1.095.913-2.008 2.008-2.008s2.007.913 2.007 2.008a2.025 2.025 0 0 1-2.007 2.007zm-8.152 0a2.025 2.025 0 0 1-2.007-2.007c0-1.095.912-2.008 2.007-2.008 1.096 0 2.008.913 2.008 2.008.06 1.095-.852 2.007-2.008 2.007zm12.046-7.604h-15.94c-.668 0-1.216.547-1.216 1.156v10.342c0 .67.548 1.156 1.217 1.156h15.94c.668 0 1.155-.548 1.155-1.156V83.293c0-.609-.548-1.156-1.156-1.156z" fill="#FFF"/><path d="M83.985 87.734c0 .547-.487 1.034-1.034 1.034-.548 0-1.035-.487-1.035-1.034 0-.548.487-1.034 1.035-1.034.547 0 1.034.425 1.034 1.034z" fill="#FFF"/></g></svg>
