<svg width="400" height="200" viewBox="0 0 400 200" xmlns="http://www.w3.org/2000/svg"><title>Vox Media</title><g fill-rule="nonzero" fill="none"><path d="M38.264 90.29l7.364 21.57 4.76-14.281c.819-2.455 1.562-4.91 2.232-6.992h9.892l-9.818 24.099c-1.562 3.942-2.529 6.248-3.421 8.926l-7.438.446-9.818-23.802c-1.19-2.975-2.678-6.694-4.017-9.595l10.264-.372zm28.86 17.553c0-10.413 6.917-18.149 17.256-18.149 9.893 0 16.438 7.29 16.438 16.438 0 10.413-6.992 18.149-17.256 18.149-9.967.074-16.438-7.29-16.438-16.438zm24.545-.67c0-6.247-3.198-10.115-7.66-10.115-4.761 0-7.81 4.463-7.81 9.818 0 6.248 3.198 10.116 7.66 10.116 4.76 0 7.81-4.463 7.81-9.818zm14.281 16.29l11.38-16.884-4.462-6.546-6.397-9.446 10.339-.372 6.769 10.562 2.305-3.942a480.787 480.787 0 0 1 4.017-6.397h10.19l-10.86 16.29 4.017 5.875c1.86 2.827 5.058 7.661 7.14 10.711l-10.413.372-6.917-11.231-2.157 3.495c-1.041 1.711-3.273 5.356-4.537 7.29H105.95v.223zm59.058-11.306l1.413-10.339c.447-2.975 1.19-8.925 1.34-11.38l7.14-.298c.818 1.86 2.008 4.538 2.975 6.62l6.1 13.538 5.95-13.76c.892-2.01 1.934-4.464 2.752-6.323h6.917c.298 2.752 1.041 8.554 1.488 11.603l1.487 10.339c.447 3.05 1.34 8.851 1.86 11.306l-9.223.372c-.075-1.34-.521-5.281-.819-7.14l-1.338-10.414c-2.306 5.727-6.397 15.917-6.992 17.554l-4.91.223-7.065-17.33-1.116 10.04c-.223 1.86-.595 5.43-.595 6.77h-9.223c.52-2.455 1.413-8.331 1.86-11.381zm71.48 11.529c-3.124-.223-6.918-.223-10.562-.223-4.091 0-8.554.074-12.05.223.223-2.231.298-8.405.298-11.455v-10.413c0-2.975-.075-9.297-.298-11.603 3.422.149 7.14.223 11.38.223 3.868 0 7.438-.074 10.637-.223a74.14 74.14 0 0 0-.372 7.438c-2.38-.074-4.76-.074-7.661-.074-1.414 0-2.976 0-4.315.074-.074.67-.074 1.636-.074 2.083v3.644l10.19-.074c-.074 1.934-.149 4.09-.149 6.545h-10.04v4.24c0 .52 0 1.488.073 2.157 1.34 0 2.901.074 4.315.074 3.347 0 6.173-.074 8.925-.148-.149 2.38-.297 4.611-.297 7.512zm22.314-.223h-12.347c.223-2.232.297-8.256.297-11.306v-10.339c0-2.975-.074-8.925-.297-11.231 1.71 0 5.876-.298 11.082-.298 12.422 0 19.339 5.95 19.339 15.992 0 10.562-7.066 17.182-18.074 17.182zm-.15-26.033c-.966 0-1.561.074-2.305.149-.074.595-.074 1.561-.074 2.082v14.579c0 .595 0 1.264.074 1.934.744.074 1.339.148 2.455.148 6.248 0 8.925-4.09 8.925-9.67-.074-5.875-3.496-9.222-9.074-9.222zm27.67 26.033c.223-2.232.298-8.256.298-11.306v-10.339c0-2.975-.075-9.074-.298-11.306 1.86 0 8.405-.074 9.967-.223-.149 1.34-.223 5.132-.223 6.918v19.487c0 1.785.074 5.43.223 6.769h-9.967zm28.34-23.95c1.636-3.868 2.751-6.323 3.644-8.926l7.512-.447 10.265 23.802c1.19 2.901 2.975 6.694 4.314 9.595l-9.967.372-2.53-6.248h-11.454c-.595 1.562-1.934 5.281-2.231 5.876h-9.744l10.19-24.025zm3.644 12.272h7.512l-3.793-10.19-3.72 10.19z" fill="#4A4A4A"/><path fill="#ABABAB" d="M388 65.149v25.14l-22.314-12.57L388 65.149z"/><path fill="#D9D9D9" d="M343.298 65.149v25.14l22.388-12.57-22.388-12.57z"/><path fill="#959595" d="M365.686 77.719v25.215L388 90.289z"/><path fill="#C5C5C5" d="M365.686 77.719v25.215l-22.388-12.645z"/></g></svg>
